name rise30.2954peak35.7071fall66.7804.mot
datacolumns 19
datarows 17
range 22.89491900000000 22.92158500000000
endheader
time	ground_force1_vx	ground_force1_vy	ground_force1_vz	ground_force1_px	ground_force1_py	ground_force1_pz	ground_force2_vx	ground_force2_vy	ground_force2_vz	ground_force2_px	ground_force2_py	ground_force2_pz	ground_torque1_x	ground_torque1_y	ground_torque1_z	ground_torque2_x	ground_torque2_y	ground_torque2_z	
22.89491900000000	-2.88134900000000	42.69556600000000	-12.13104400000000	0.24729400000000	0.00000000000000	0.08974100000000	-51.00411300000000	793.96393799999998	-53.88338300000000	0.05259800000000	0.00000000000000	-0.09022800000000	0.00000000000000	-6.34127100000000	0.00000000000000	0.00000000000000	-12.63749600000000	0.00000000000000	
22.89658100000000	-3.08578300000000	50.00306400000000	-13.64246100000000	0.25074000000000	0.00000000000000	0.09059400000000	-51.88960300000000	791.70787800000005	-53.67735300000000	0.05174500000000	0.00000000000000	-0.09011800000000	0.00000000000000	-7.19720700000000	0.00000000000000	0.00000000000000	-12.68490100000000	0.00000000000000	
22.89825000000000	-3.21229000000000	57.39004000000000	-15.01668000000000	0.25387100000000	0.00000000000000	0.09137700000000	-52.79222400000000	789.33033499999999	-53.44905900000000	0.05089100000000	0.00000000000000	-0.09000400000000	0.00000000000000	-7.99306800000000	0.00000000000000	0.00000000000000	-12.73621500000000	0.00000000000000	
22.89992000000000	-3.25144000000000	64.75955100000000	-16.22178900000000	0.25673800000000	0.00000000000000	0.09210000000000	-53.71077700000000	786.82822899999996	-53.19797200000000	0.05003900000000	0.00000000000000	-0.08988700000000	0.00000000000000	-8.71082700000000	0.00000000000000	0.00000000000000	-12.79128000000000	0.00000000000000	
22.90157900000000	-3.19746300000000	72.03824400000001	-17.23669500000000	0.25938200000000	0.00000000000000	0.09277100000000	-54.64397000000000	784.19844499999999	-52.92359000000000	0.04918700000000	0.00000000000000	-0.08976600000000	0.00000000000000	-9.33805900000000	0.00000000000000	0.00000000000000	-12.84992000000000	0.00000000000000	
22.90325000000000	-3.04817300000000	79.17858500000000	-18.05125700000000	0.26183600000000	0.00000000000000	0.09339900000000	-55.59041500000000	781.43783599999995	-52.62543500000000	0.04833700000000	0.00000000000000	-0.08964200000000	0.00000000000000	-9.86812800000000	0.00000000000000	0.00000000000000	-12.91194300000000	0.00000000000000	
22.90491600000000	-2.80461900000000	86.15859700000000	-18.66550800000000	0.26412600000000	0.00000000000000	0.09398800000000	-56.54863500000000	778.54323699999998	-52.30306100000000	0.04749000000000	0.00000000000000	-0.08951400000000	0.00000000000000	-10.29987100000000	0.00000000000000	0.00000000000000	-12.97713900000000	0.00000000000000	
22.90657900000000	-2.47053400000000	92.97954300000001	-19.08817000000000	0.26627300000000	0.00000000000000	0.09454300000000	-57.51706300000000	775.51147300000002	-51.95605300000000	0.04664600000000	0.00000000000000	-0.08938200000000	0.00000000000000	-10.63688500000000	0.00000000000000	0.00000000000000	-13.04528200000000	0.00000000000000	
22.90825400000000	-2.05167000000000	99.66209300000000	-19.33472100000000	0.26829400000000	0.00000000000000	0.09506900000000	-58.49404100000000	772.33937100000003	-51.58403000000000	0.04580600000000	0.00000000000000	-0.08924700000000	0.00000000000000	-10.88654100000000	0.00000000000000	0.00000000000000	-13.11612900000000	0.00000000000000	
22.90991300000000	-1.55508200000000	106.24157000000000	-19.42523400000000	0.27020500000000	0.00000000000000	0.09556700000000	-59.47782800000000	769.02376900000002	-51.18665100000000	0.04497100000000	0.00000000000000	-0.08910800000000	0.00000000000000	-11.05886300000000	0.00000000000000	0.00000000000000	-13.18942000000000	0.00000000000000	
22.91158100000000	-0.98843500000000	112.76281899999999	-19.38222500000000	0.27201500000000	0.00000000000000	0.09604200000000	-60.46659900000000	765.56152799999995	-50.76361400000000	0.04414200000000	0.00000000000000	-0.08896500000000	0.00000000000000	-11.16538100000000	0.00000000000000	0.00000000000000	-13.26488100000000	0.00000000000000	
22.91324900000000	-0.35939600000000	119.27518600000001	-19.22867000000000	0.27373600000000	0.00000000000000	0.09649500000000	-61.45844700000000	761.94954800000005	-50.31466200000000	0.04331900000000	0.00000000000000	-0.08881900000000	0.00000000000000	-11.21805300000000	0.00000000000000	0.00000000000000	-13.34221900000000	0.00000000000000	
22.91491200000000	0.32487800000000	125.82799199999999	-18.98633000000000	0.27537400000000	0.00000000000000	0.09692900000000	-62.45138900000000	758.18477299999995	-49.83958300000000	0.04250200000000	0.00000000000000	-0.08866800000000	0.00000000000000	-11.22834600000000	0.00000000000000	0.00000000000000	-13.42113000000000	0.00000000000000	
22.91658800000000	1.05810600000000	132.46676900000000	-18.67444900000000	0.27693600000000	0.00000000000000	0.09734500000000	-63.44337200000000	754.26421100000005	-49.33821400000000	0.04169300000000	0.00000000000000	-0.08851400000000	0.00000000000000	-11.20649800000000	0.00000000000000	0.00000000000000	-13.50129200000000	0.00000000000000	
22.91824600000000	1.83512100000000	139.23041300000000	-18.30888500000000	0.27842800000000	0.00000000000000	0.09774500000000	-64.43226900000001	750.18494199999998	-48.81044400000000	0.04089200000000	0.00000000000000	-0.08835600000000	0.00000000000000	-11.16101300000000	0.00000000000000	0.00000000000000	-13.58237100000000	0.00000000000000	
22.91991500000000	2.65197100000000	146.14931899999999	-17.90163200000000	0.27985400000000	0.00000000000000	0.09813100000000	-65.41589200000000	745.94413799999995	-48.25621600000000	0.04009900000000	0.00000000000000	-0.08819300000000	0.00000000000000	-11.09836800000000	0.00000000000000	0.00000000000000	-13.66402000000000	0.00000000000000	
22.92158500000000	3.50590700000000	153.24445200000000	-17.46073300000000	0.28121600000000	0.00000000000000	0.09850200000000	-66.39199300000000	741.53907000000004	-47.67552900000000	0.03931500000000	0.00000000000000	-0.08802700000000	0.00000000000000	-11.02293000000000	0.00000000000000	0.00000000000000	-13.74587900000000	0.00000000000000	
